<?xml version="1.0" encoding="UTF-8" standalone="no"?>
<!DOCTYPE svg PUBLIC "-//W3C//DTD SVG 1.1//EN" "http://www.w3.org/Graphics/SVG/1.1/DTD/svg11.dtd">
<!-- Created with Vectornator (http://vectornator.io/) -->
<svg stroke-miterlimit="10" style="fill-rule:nonzero;clip-rule:evenodd;stroke-linecap:round;stroke-linejoin:round;" version="1.1" viewBox="0 0 512 512" xml:space="preserve" xmlns="http://www.w3.org/2000/svg" xmlns:xlink="http://www.w3.org/1999/xlink">
<defs/>
<g id="Capa-2">
<path d="M278.256 8.10874L487.153 119.778C499.225 125.932 509.011 141.906 509.011 155.456L509.011 351.731C509.011 365.281 499.303 381.405 487.328 387.745L270.016 502.792C258.041 509.132 238.759 508.886 226.949 502.243L24.3726 388.294C12.5628 381.651 2.98902 365.281 2.98902 351.731L2.98902 150.344C2.98902 136.794 12.7313 120.736 24.7489 114.477L234.638 8.2988C246.656 2.0396 266.184 1.95451 278.256 8.10874Z" fill="#fdd198" fill-rule="nonzero" opacity="1" stroke="none"/>
<path d="M502 134L249.875 260.156L7.0625 134.969L7.0625 134.031C4.52583 139.365 3 145.041 3 150.344L3 351.719C3 365.269 12.5652 381.638 24.375 388.281L226.938 502.25C238.747 508.893 258.056 509.121 270.031 502.781L487.312 387.75C499.288 381.41 509 365.269 509 351.719L509 155.469C509 148.385 506.277 140.659 502 134Z" fill="#ffb655" fill-rule="nonzero" opacity="1" stroke="none"/>
<path d="M9.0625 130.281C5.32856 136.631 3 143.769 3 150.344L3 351.719C3 365.269 12.5652 381.638 24.375 388.281L226.938 502.25C233.774 506.095 241.68 507.427 250.199 507.309L250.063 260.182L9.0625 132.188L9.0625 130.281Z" fill="#ffc477" fill-rule="nonzero" opacity="1" stroke="none"/>
<path d="M180.543 294.479L174.631 285.755C172.997 283.359 169.705 282.724 167.315 284.345L104.395 327.052L93.4185 301.573C92.2681 298.92 89.1632 297.685 86.5002 298.821L76.8244 303.001C74.1515 304.148 72.9182 307.249 74.0704 309.923L90.9385 349.104C91.8905 351.297 93.8734 353.487 96.0937 354.37C98.3141 355.253 101.109 354.745 103.382 353.223L179.145 301.79C181.54 300.171 182.174 296.884 180.543 294.479Z" fill="#b5b51f" fill-rule="nonzero" opacity="1" stroke="none"/>
<path d="M110.358 70.3153C110.358 70.3153 293.68 168.473 357.631 202.495C361.425 205.12 361.948 206.168 362.49 211.096C362.472 236.742 362.192 277.718 362.192 277.718C365.362 288.038 378.916 288.89 378.916 288.89C378.916 288.89 390.554 286.251 393.757 276.329C394.105 246.113 394.075 276.867 394.138 194.828C394.089 189.177 393.27 186.719 386.886 183.847C331.608 154.146 144.956 53.8096 144.956 53.8096L110.358 70.3153Z" fill="#ffffff" fill-rule="nonzero" opacity="1" stroke="none"/>
</g>
</svg>
